<?xml version="1.0" encoding="utf-8"?>
<!-- Generator: Adobe Illustrator 27.5.0, SVG Export Plug-In . SVG Version: 6.00 Build 0)  -->
<svg version="1.1" id="Слой_2" xmlns="http://www.w3.org/2000/svg" xmlns:xlink="http://www.w3.org/1999/xlink" x="0px" y="0px"
	 viewBox="0 0 2000 2000" style="enable-background:new 0 0 2000 2000;" xml:space="preserve">
<rect style="fill:#FFFFFF;" width="2000" height="2000"/>
<g>
	<path style="fill:#F7AF4D;" d="M714.958,531.068c-10.554,8.911-25.638,8.463-33.703-1.095c-1.245-1.444-2.29-3.037-3.037-4.729
		l38.084-30.517c1.095,0.846,2.091,1.792,3.037,2.888C727.453,507.123,725.462,522.107,714.958,531.068z"/>
	<path style="fill:#E6325C;" d="M492.626,1612.506v30.717H307.035v-30.717l68.75-34.3c-0.199,0.846-0.249,1.294-0.249,1.294
		s1.444,0.349,4.132,0.946c6.422,1.493,19.863,4.68,37.337,9.159l58.047,14.139L492.626,1612.506z"/>
	<path style="fill:#EC942A;" d="M1471.511,1086.647c-0.945,8.812-20.511-9.011-21.805,11.55
		c-2.34,37.337,19.764,63.573,19.813,88.414c0,11.302-3.783,16.578-8.313,20.313c-0.398-0.598-0.847-1.195-1.294-1.743
		c-17.076-21.805-45.005-26.435-64.171-45.601c-12.396-12.446-14.288-35.098-24.842-49.684
		c-10.604-14.637-25.041-44.557-40.872-40.325c12.795,13.193,11.55,47.643,18.719,65.913c8.164,20.859,18.818,40.324,30.766,58.396
		c12.546,18.968,9.808,46.299,17.076,68.9c2.438,7.468,5.874,14.237,9.906,20.461c-59.889-14.886-136.853,48.638-136.853,48.638
		s25.489,6.272,51.476,4.082c12.048-0.995,19.813-14.935,33.105-11.849c11.152,2.539,16.13,17.076,22.204,18.918
		c12.396,3.783,20.561-5.128,30.865,3.982c9.559,8.364,11.151,18.271,21.904,30.318c5.924,6.671,11.45,11.849,16.229,15.781h-4.48
		v199.381c0,17.524,6.571,32.758,16.279,40.772l17.341,10.853H1253.61v-413.249c34.749-13.84,59.342-47.792,59.342-87.469
		c0-12.496-2.688-24.443-7.169-36.043c-1.842-4.729-4.331-9.31-7.02-13.641c-3.982-6.372-8.712-12.396-14.139-17.574
		c-1.792-1.742-3.534-3.534-5.525-5.027c-0.1-0.149-0.199-0.199-0.299-0.299c8.165-3.336,16.429-6.272,23.896-11.052
		c3.037-1.941,6.174-4.281,8.612-6.92c0.896-0.946,2.241-2.589,3.286-3.286c0.149-0.1,0.249-0.199,0.299-0.298h61.383
		l19.664-160.401c4.879-39.777-19.913-75.621-52.322-75.621h-90.306l-1.693-3.933h159.355c32.409,0,57.201,35.794,52.322,75.62
		l-20.461,166.575c4.232,0.945,8.363,2.141,12.347,3.634c3.534,1.295,6.92,2.838,10.255,4.53
		C1468.375,1069.323,1472.158,1080.973,1471.511,1086.647z"/>
	<path style="fill:#F7AF4D;" d="M667.863,1148.578c-0.747,1.294-1.394,2.538-1.842,3.833l-71.638,173.644v-98.819
		c-34.749-13.84-59.342-47.792-59.342-87.47c0-51.973,42.167-94.14,94.09-94.14c9.458,0,18.619,1.395,27.281,4.032L667.863,1148.578
		z"/>
	<path style="fill:#F7AF4D;" d="M872.77,882.139h-72.136l1.593-13.093c3.933-32.11,26.186-55.807,52.322-55.807h45.153
		C889.348,839.226,879.59,865.163,872.77,882.139z"/>
	<path style="fill:#F7AF4D;" d="M721.131,1546.444c6.945-0.901,13.887-1.872,20.84-2.69c0,0-1.961,7.628-3.698,10.74
		c-1.792,3.209-4.769,5.893-7.982,7.632c-5.427,2.938-41.668,14.486-55.558,19.813c-0.149,0.05-0.299,0.1-0.448,0.149
		c-9.559,2.489-18.52,3.833-29.124,3.833c4.182-9.808,0.946-22.253-7.517-28.774c1.195-6.472,2.44-12.993,3.634-19.465l10.753,0.646
		l61.383-172.448L721.131,1546.444z"/>
	<path style="fill:#F7AF4D;" d="M1312.952,1143.4c0,39.677-24.593,73.629-59.342,87.469v413.249H862.465
		c2.838-14.089,4.879-28.476,3.585-42.813c-1.344-14.835-6.571-29.771-16.876-40.573c-1.344-1.394-2.788-2.788-3.634-4.53
		c-0.946-1.941-1.095-4.132-1.195-6.322c-0.349-6.422-0.647-12.844-0.996-19.216l22.402-2.888L847.63,1366.13l-2.24-41.918
		l-3.236-61.581l-0.099-1.941l226.414,1.941l23.248,0.199c2.639,0.149,5.178,0.1,7.717-0.199c9.061-0.847,17.523-4.082,25.29-9.16
		v-69.796c-5.477-1.991-10.355-4.879-14.089-8.413c-3.087-3.236-1.941-10.604,1.394-19.466c1.892-5.127,4.58-10.753,7.518-16.378
		c1.045-0.249,3.087-5.676,3.087-5.676c7.367-13.143,15.632-25.141,19.315-29.173c0,0-12.197,0.647-17.175-0.149
		c-3.585-0.598-12.197-7.069-12.446-9.657c-0.797-7.866,1.095-9.608,6.671-8.962c6.372,0.747,13.192-1.991,18.918-4.381
		c9.159-3.833,17.474-9.31,25.937-14.387c3.336-1.991,6.87-4.032,10.205-5.775c0-0.249,0.05-0.447,0.05-0.647
		c4.382-53.019,8.315-95.882,8.364-138.596l1.294-28.575l66.212,108.278l-65.216,51.874l43.411,37.984l6.82-2.788l43.809-17.972
		c0.1,0.1,0.199,0.149,0.299,0.299c1.295,1.892,3.833,3.435,5.525,5.027c5.377,5.128,10.355,11.152,14.139,17.574
		c5.028,8.513,9.16,17.424,11.45,27.082C1312.006,1128.217,1312.952,1135.783,1312.952,1143.4z"/>
	<path style="fill:#F7AF4D;" d="M1395.94,888.859l-19.664,160.401h-61.383c17.126-18.868,22.402-46.995,10.653-71.837
		l-72.234-164.185h90.306C1376.027,813.239,1400.819,849.083,1395.94,888.859z"/>
	<path style="fill:#1D9A85;" d="M862.465,1644.118H594.666c0.261,0.013,0-11.102,0-11.102l-177.66-43.411
		c-24.742-6.372-41.469-10.105-41.469-10.105s10.455-65.116,56.703-46.646c30.218,12.097,104.345-2.439,104.345-2.439l0.498,0.149
		c0.248,0.1,0.498,0.198,0.846,0.349c4.58,1.842,20.51,9.906,41.669,36.789c8.463,10.653,49.235,11.55,60.536-8.064l0.398-2.041
		c2.639,2.091,4.779,5.376,6.124,10.454c1.543,5.825,2.19,11.849,2.141,17.822c34.699-2.24,88.414-27.53,88.414-27.53
		c0.1,0,0.697,0.05,1.693,0.149c5.277,0.847,22.801,5.028,50.48,25.539c11.201,8.313,50.829-0.548,56.155-22.203l-0.199-2.041
		c3.086,1.344,6.073,4.032,8.861,8.612C872.421,1598.566,862.465,1644.118,862.465,1644.118z"/>
	<path style="fill:#F5AE9E;" d="M644.515,1536.836l-4.381,22.801c-11.301,19.614-52.073,18.718-60.536,8.064
		c-25.091-31.861-42.814-37.287-43.013-37.287l8.961-13.143l48.837,9.658L644.515,1536.836z"/>
	<path style="fill:#F5AE9E;" d="M845.539,1561.827c-5.327,21.655-44.954,30.517-56.155,22.203
		c-32.906-24.394-51.476-25.688-52.173-25.688l4.829-14.586l100.412-12.994L845.539,1561.827z"/>
	<path style="fill:#4B3584;" d="M1110.634,1175.262c3.733,3.534,8.612,6.422,14.089,8.413v69.796c0,0.05-0.051,0.05-0.051,0.05
		c-7.716,5.028-16.179,8.264-25.239,9.11c-2.539,0.299-5.078,0.349-7.717,0.199l-23.248-0.199l-226.414-1.941l5.576,105.44
		l18.121,161.646l-144.62,18.669l-7.716-180.563l-61.383,172.448l-57.648-11.399l-76.616-15.185l148.254-359.334
		c0.448-1.295,1.095-2.539,1.842-3.833l0.847,7.218h443.318C1108.692,1164.657,1107.547,1172.025,1110.634,1175.262z"/>
	<path style="fill:#E6325C;" d="M1317.184,1046.572c-2.24,2.787-4.829,5.228-7.468,7.616c-6.123,5.526-13.392,9.957-21.655,12.845
		l-8.612,3.534l-0.647,0.249l-6.82,2.788L1241.713,1086l-7.468,3.087l-6.073,2.489l-24.245-21.208l-7.468-6.521l-11.698-10.255
		c6.389-5.078,12.778-10.155,19.166-15.234l30.318-24.145l7.468-5.924l8.264-6.571c0,0-8.264-13.441-8.264-13.491l-0.548-0.897
		l-37.238-60.934l-0.348-0.548l-7.12-11.45v-0.149l-12.694-20.81l-1.294,28.575c-0.05,42.714-8.414,138.994-8.414,139.243
		c-2.239,1.195-4.579,2.489-6.919,3.834c-2.539,1.493-5.078,2.986-7.567,4.529c-9.906,6.024-19.664,12.048-31.114,15.085
		c-3.019,0.801-6.32,1.459-9.459,1.095c-5.576-0.646-7.468,1.096-6.671,8.962c0.199,1.891,4.779,5.824,8.662,8.064
		c2.34,1.344,4.779,1.792,7.468,1.892c5.675,0.249,13.491-0.149,13.491-0.149c-2.738,2.987-7.966,10.306-13.491,19.266
		c-1.892,3.037-3.784,6.273-5.676,9.608c-0.05,0.1-0.099,0.199-0.148,0.299v-5.924c0-2.738-2.391-5.078-5.228-5.078H950.133
		c-9.33-80.198-18.621-160.4-27.928-240.602H872.77c5.675-14.089,13.292-34.251,21.656-55.558
		c2.439-6.223,4.928-12.545,7.467-18.868c10.902-27.132,22.303-53.766,31.613-69.797c2.622-4.589,6.158-8.889,10.056-12.445v0.149
		c8.264-7.667,18.768-13.491,30.318-17.474l7.468-2.339c8.612-2.44,17.623-3.983,26.334-4.829c1.793-0.149,3.535-0.299,5.277-0.398
		c1.295,0.946,2.639,1.842,4.032,2.689c5.228,3.186,11.699,5.974,19.067,8.164c1.941,4.729,4.929,9.757,9.409,13.989
		c2.141,2.041,4.63,3.933,7.468,5.476c7.367,4.132,17.225,6.323,30.268,4.68c2.39-0.298,4.878-0.746,7.467-1.344
		c12.576-2.902,21.376-9.366,30.318-18.619c2.688-2.788,5.228-5.576,7.468-8.214c0.945-1.145,1.842-2.19,2.639-3.236
		c13.89,1.643,25.239,3.385,34.798,5.725c32.459,7.667,44.755,21.456,67.356,57.699c2.843,6.396,5.646,12.809,8.464,19.216
		l30.268,68.85l7.468,16.976l46.099,104.793C1336.748,1001.07,1332.417,1027.754,1317.184,1046.572z"/>
	<g>
		<path style="fill:#5A8DBF;" d="M1122.632,1127.818v5.924c-1.046,1.842-2.092,3.783-3.087,5.676
			c-2.931,5.022-5.574,10.902-7.518,16.378H668.709l-31.712-273.657h285.207l27.928,240.602h167.271
			C1120.291,1122.74,1122.632,1124.98,1122.632,1127.818z"/>
		<path style="fill:#108875;" d="M1556.242,1348.557c-3.037-4.879-6.622-9.26-10.555-12.745c-0.945-0.797-1.892-1.593-2.837-2.29
			c-11.6-8.911-25.937-12.445-36.939-22.552c-21.605-19.963-23.298-57.549-35.296-86.722c-2.589-6.272-5.626-12.098-9.409-17.324
			c4.53-3.734,8.313-9.011,8.313-20.313c-0.05-24.841-22.153-51.077-19.813-88.414c1.294-20.561,20.859-2.738,21.805-11.55
			c0.648-5.675-3.136-17.324-6.073-26.982c-1.643-5.576-3.037-10.454-3.137-13.242c-1.692-50.679,9.359-75.372,9.359-75.372
			s31.115,32.11,37.935,86.573c8.215,65.614,16.479,6.521,32.26,31.961c11.599,18.618-3.336,56.604-0.398,69.148
			c6.124,25.788,21.557-14.288,31.612,17.772c1.941,6.223,3.485,12.496,4.68,18.918
			C1587.805,1247.994,1574.413,1305.893,1556.242,1348.557z"/>
		<path style="fill:#2B2150;" d="M1529.879,1242.632c-1.09,0-2.086-0.718-2.397-1.813c-3.694-13.117-8.318-26.243-12.786-38.939
			c-8.741-24.836-17.783-50.515-20.579-77.793c-0.141-1.366,0.851-2.589,2.222-2.729c1.347-0.127,2.587,0.851,2.728,2.224
			c2.737,26.69,11.678,52.085,20.326,76.646c4.492,12.769,9.14,25.973,12.884,39.24c0.374,1.322-0.398,2.698-1.721,3.072
			C1530.326,1242.603,1530.102,1242.632,1529.879,1242.632z"/>
		<g>
			<path style="fill:#2BB19E;" d="M1473.154,1393.112h-27.729c-4.779-3.933-10.306-9.11-16.229-15.781
				c-10.753-12.048-12.346-21.954-21.904-30.318c-10.305-9.11-18.47-0.199-30.865-3.982c-6.074-1.842-11.052-16.379-22.204-18.918
				c-13.292-3.086-21.058,10.854-33.105,11.849c-25.986,2.19-51.476-4.082-51.476-4.082s76.965-63.523,136.853-48.638
				c9.808,14.984,23.249,27.082,35.446,39.677C1458.119,1339.645,1473.154,1367.374,1473.154,1393.112z"/>
			<path style="fill:#108875;" d="M1686.325,1161.322c-5.526,31.563-29.571,49.435-34.6,70.095
				c-2.588,10.703,0.647,15.831,4.432,20.063c-10.306,25.787-12.994,57.101-33.355,74.177
				c-11.849,9.956-27.729,12.894-39.727,22.602c-8.065,6.521-14.288,14.536-17.474,23.497c-2.439,6.621-3.137,13.84-1.743,21.357
				h-6.272c-3.335-7.518-6.472-16.927-9.11-27.729c-2.39-9.658-4.331-20.411-5.625-31.861c0.945,0.697,1.892,1.493,2.837,2.29
				c3.933,3.485,7.518,7.866,10.555,12.745c18.171-42.664,31.563-100.563,21.506-153.133c6.671,1.892,11.252,13.242,18.121-0.249
				c5.028-9.957-0.149-44.308,13.491-57.699c18.569-18.369,13.79,32.409,33.902-20.809c16.728-44.108,49.684-65.266,49.684-65.266
				s4.53,22.602-7.069,64.519c-1.742,6.272-14.935,24.194-15.88,31.861C1669.051,1155.248,1689.313,1143.997,1686.325,1161.322z"/>
			<path style="fill:#1D9A85;" d="M1798.686,1106.112c-12.795,12.048-11.6,43.361-18.719,59.989
				c-8.164,18.917-18.817,36.64-30.766,53.068c-12.546,17.225-9.807,42.116-17.075,62.627
				c-8.215,23.149-28.078,38.482-45.353,54.712c-16.03,15.084-31.463,34.251-31.712,56.604h-91.203
				c-1.394-7.518-0.696-14.736,1.743-21.357c3.186-8.961,9.408-16.976,17.474-23.497c11.998-9.708,27.878-12.646,39.727-22.602
				c20.361-17.076,23.05-48.39,33.355-74.177c3.186-8.115,7.168-15.632,12.694-22.004c17.075-19.864,44.954-24.046,64.12-41.52
				c12.396-11.251,14.288-31.861,24.842-45.153C1768.367,1129.461,1782.854,1102.279,1798.686,1106.112z"/>
			<path style="fill:#2B2150;" d="M1589.506,1267.584c-0.418,0-0.836-0.102-1.22-0.32c-1.201-0.674-1.624-2.193-0.948-3.389
				c5.849-10.39,12.456-20.556,18.849-30.386c12.275-18.883,24.97-38.406,32.622-60.111c0.456-1.298,1.886-1.977,3.174-1.52
				c1.299,0.457,1.979,1.879,1.522,3.175c-7.853,22.267-20.711,42.043-33.143,61.169c-6.349,9.765-12.917,19.864-18.688,30.113
				C1591.218,1267.127,1590.372,1267.584,1589.506,1267.584z"/>
			<path style="fill:#2B2150;" d="M1560.443,1340.418c-0.35,0-0.7-0.072-1.04-0.226c-1.25-0.573-1.794-2.052-1.221-3.301
				c4.58-9.981,8.251-20.66,11.8-30.983c1.293-3.768,2.586-7.533,3.928-11.276c0.462-1.291,1.882-1.972,3.18-1.505
				c1.298,0.462,1.969,1.887,1.507,3.182c-1.332,3.725-2.62,7.471-3.908,11.219c-3.588,10.438-7.298,21.235-11.984,31.439
				C1562.286,1339.881,1561.387,1340.418,1560.443,1340.418z"/>
		</g>
		<g>
			<path style="fill:#313B84;" d="M1624.228,1639.404h-151.111c-17.774,0-32.185-20.994-32.185-46.893v-199.383h215.481v199.383
				C1656.412,1618.41,1642.002,1639.404,1624.228,1639.404z"/>
			<g>
				<polygon style="fill:#6FC2B9;" points="1626.503,1393.178 1440.908,1461.405 1440.908,1444.438 1580.146,1393.178 				"/>
				<polygon style="fill:#6FC2B9;" points="1656.442,1416.323 1656.442,1433.411 1440.908,1512.788 1440.908,1495.701 				"/>
				<polygon style="fill:#6FC2B9;" points="1656.442,1467.707 1656.442,1484.794 1440.908,1564.171 1440.908,1547.084 				"/>
				<path style="fill:#6FC2B9;" d="M1656.442,1519.09v17.087l-211.877,78.044c-1.701-4.847-2.893-10.18-3.402-15.754
					L1656.442,1519.09z"/>
				<path style="fill:#6FC2B9;" d="M1656.442,1570.352v17.088l-141.109,51.988h-42.188c-1.105,0-2.212-0.121-3.318-0.242
					L1656.442,1570.352z"/>
			</g>
		</g>
	</g>
	<g>
		<path style="fill:#2B2150;" d="M1433.773,1245.632c-1.074,0-2.06-0.695-2.382-1.775c-4.215-14.079-18.844-46.924-37.148-58.592
			c-1.162-0.739-1.502-2.278-0.764-3.438c0.744-1.167,2.29-1.492,3.438-0.763c19.49,12.421,34.853,46.705,39.238,61.363
			c0.398,1.317-0.351,2.705-1.668,3.099C1434.25,1245.598,1434.007,1245.632,1433.773,1245.632z"/>
		
			<ellipse transform="matrix(0.7071 -0.7071 0.7071 0.7071 92.6685 1204.9727)" style="fill:#C2DEF5;" cx="1500.865" cy="490.626" rx="134.755" ry="134.755"/>
		<path style="fill:#2A2150;" d="M1500.883,352.148c-76.367,0-138.496,62.129-138.496,138.497
			c0,76.317,62.129,138.447,138.496,138.447s138.446-62.129,138.446-138.447C1639.329,414.277,1577.25,352.148,1500.883,352.148z
			 M1596.068,580.503l-20.361-20.262c-1.493-1.444-3.833-1.444-5.276,0c-1.494,1.494-1.444,3.833,0,5.277l20.36,20.262
			c-22.651,21.407-52.819,34.848-86.124,35.744l-0.1-28.774c0-2.041-1.692-3.684-3.734-3.684h-0.05
			c-2.041,0-3.684,1.643-3.684,3.733l0.1,28.725c-33.354-0.896-63.573-14.288-86.175-35.694l20.212-20.361
			c1.443-1.494,1.443-3.833,0-5.277c-1.443-1.494-3.833-1.444-5.276,0l-20.262,20.312c-21.457-22.651-34.849-52.82-35.744-86.075
			l28.774-0.1c2.041-0.05,3.733-1.692,3.733-3.783c0-2.041-1.692-3.684-3.733-3.684h-0.05l-28.725,0.1
			c0.896-33.305,14.287-63.523,35.694-86.174l20.411,20.212c0.696,0.747,1.642,1.095,2.588,1.095c0.996,0,1.942-0.348,2.688-1.095
			c1.444-1.494,1.444-3.833-0.05-5.277l-20.361-20.212c22.602-21.456,52.82-34.898,86.175-35.794l0.1,28.774
			c0,2.042,1.643,3.734,3.733,3.734c2.041,0,3.734-1.692,3.734-3.783l-0.1-28.725c33.305,0.896,63.522,14.288,86.174,35.694
			l-20.262,20.412c-1.443,1.443-1.443,3.783,0,5.277c0.747,0.697,1.692,1.045,2.639,1.045c0.996,0,1.941-0.348,2.688-1.095
			l20.212-20.361c21.407,22.651,34.849,52.87,35.744,86.174l-28.774,0.1c-2.041,0-3.733,1.643-3.684,3.734
			c0,2.041,1.643,3.734,3.733,3.734l28.725-0.1C1630.867,527.633,1617.476,557.852,1596.068,580.503z"/>
		<path style="fill:#1D9A85;" d="M1505.463,1393.112h26.484h25.639h6.272h2.439c1.146-6.92,0.797-14.238-0.696-21.357
			c-1.743-8.264-4.979-16.278-9.359-23.198c-3.037-4.879-6.621-9.26-10.555-12.745c-0.945-0.796-1.892-1.593-2.837-2.29
			c-11.6-8.911-25.938-12.445-36.939-22.552c-26.235-24.194-23.1-74.376-44.705-104.046c-0.398-0.598-0.847-1.195-1.294-1.743
			c-17.076-21.805-45.004-26.435-64.171-45.601c-12.396-12.446-14.288-35.098-24.842-49.684
			c-10.604-14.637-25.041-44.556-40.872-40.324c12.795,13.192,11.55,47.643,18.719,65.912c8.164,20.859,18.818,40.324,30.766,58.396
			c12.546,18.968,9.808,46.299,17.076,68.9c2.439,7.467,5.874,14.237,9.906,20.461c9.808,14.984,23.249,27.082,35.446,39.677
			c16.179,16.728,31.214,44.456,31.214,70.194h13.84H1505.463z"/>
		<path style="fill:#2B2150;" d="M1567.498,494.359h-66.683c-2.062,0-3.733-1.672-3.733-3.733v-60.442
			c0-2.061,1.672-3.734,3.733-3.734s3.734,1.672,3.734,3.734v56.708h62.948c2.061,0,3.733,1.672,3.733,3.734
			C1571.231,492.687,1569.559,494.359,1567.498,494.359z"/>
	</g>
	<path style="fill:#4B3584;" d="M1207.91,493.681c-1.146-1.276-0.096-9.405-0.354-11.487c-0.463-3.728-1.402-7.321-3.032-10.716
		c-5.377-11.201-17.641-24.13-29.86-27.648c-5.385-1.551-11.114-1.932-16.693-1.822c-0.631,0.013-7.895,0.95-8.107,0.597
		c-2.34-3.883-2.688-8.663-4.381-12.894c-7.666-18.818-26.584-16.777-40.971-15.233c-2.489,0.249-5.128,0.846-7.518-0.15
		c-1.991-0.847-3.436-2.639-4.929-4.282c-16.379-17.523-46.397-15.781-60.337,3.435c-1.443,1.992-2.788,4.232-4.829,5.477
		c-3.933,2.39-8.812,0.547-13.192-0.647c-15.881-4.431-34.052,0.846-44.058,14.636c-10.056,13.79-9.956,35.894,1.543,48.738
		c-11.052,1.393-21.158,13.989-16.777,25.24c4.232,10.953,14.786,21.307,25.589,20.511c20.909-1.543,45.502-15.283,58.495-31.762
		c5.178,10.803,15.532,18.121,26.484,20.262c11.002,2.141,22.353-0.547,32.11-6.123c3.435-1.941,31.363-19.714,31.363-19.714
		c-2.588,9.988-6.342,21.191-3.733,31.549c2.043,8.112,6.681,20.021,15.283,23.013c4.58,1.593,9.607,3.186,14.438,3.58
		c0.211-6.725,6.069-13.29,11.599-16.573c6.372-3.783,25.872-1.945,23.299,17.624c-1.236,9.4-15.474,25.375-18.627,28.93
		c-2.709,3.054-4.502,7.043-7.36,9.9c-0.1,0.1-0.149,0.199-0.198,0.299c-6.024-4.032-12.895-5.875-14.438,0.149
		c-8.114,31.861-32.758,45.004-84.084,30.916c-10.803-2.937-26.385-7.318-38.582,0.448c-17.424,11.151-38.831-23.049-38.831-23.049
		c-0.498,20.162,0.896,51.824,1.742,59.192c2.291,19.714,9.559,35.943,28.028,47.194c17.923,10.952,50.929,17.324,80.5,9.21
		c54.661-14.935,82.98-32.367,79.998-87.371c11.891,0,16.88-6.604,19.856-9.215c11.249-9.868,17.814-24.321,22.064-38.375
		C1235.435,524.36,1207.923,493.696,1207.91,493.681z M1175.7,603.652c0,0,0,0-0.05,0c0-0.199,0-0.398-0.05-0.598
		C1175.601,603.055,1175.899,603.801,1175.7,603.652z"/>
	<path style="fill:#F5AE9E;" d="M1226.994,1094.651c0.267,15.937-53.902,78.847-53.902,78.847
		c-13.543,19.088-47.52,16.091-62.461,1.751c-9.74-10.23,22.857-61.413,31.297-70.659c0,0-12.167,0.617-17.148-0.194
		c-3.597-0.587-12.223-7.043-12.473-9.618c-0.763-7.874,1.123-9.607,6.697-8.974c10.201,1.161,28.61-8.823,32.401-11.082
		c5.412-3.205,28.495-18.6,35.08-17.85L1226.994,1094.651z"/>
	<path style="fill:#F7AF4D;" d="M762.066,1025.524c2.335,15.87,11.584,26.992,20.658,24.841
		c9.074-2.151,14.536-16.761,12.201-32.631c-2.336-15.871-11.585-26.993-20.658-24.841
		C765.192,995.044,759.73,1009.653,762.066,1025.524z"/>
	<path style="fill:#2B2150;" d="M780.458,1054.367L780.458,1054.367c-10.384-0.002-19.675-11.903-22.086-28.302
		c-2.655-18.01,3.948-34.177,15.032-36.807c1.026-0.243,2.081-0.367,3.126-0.367c10.384,0,19.675,11.904,22.086,28.302
		c2.654,18.01-3.948,34.177-15.032,36.807C782.559,1054.243,781.508,1054.367,780.458,1054.367z M776.53,996.358
		c-0.467,0-0.943,0.056-1.405,0.168c-6.193,1.468-11.565,13.516-9.363,28.452c2.018,13.72,9.057,21.919,14.697,21.922l0,0
		c0.472,0,0.943-0.057,1.405-0.168c6.194-1.469,11.566-13.516,9.364-28.453C789.209,1004.558,782.17,996.358,776.53,996.358z"/>
	<g>
		<g>
			<g>
				<path style="fill:#ED7497;" d="M1123.328,704.563c-0.746,0.299-1.543,0.597-2.34,0.846v-0.597L1123.328,704.563z"/>
				<path style="fill:#ED7497;" d="M1128.456,707.4v377.306c-0.647,0.149-1.245,0.299-1.842,0.448
					c-0.598,0.1-1.245,0.249-1.842,0.348c-0.05,0-0.15,0.05-0.199,0.05c-1.245,0.199-2.439,0.349-3.585,0.349V715.614
					C1123.677,712.826,1126.216,710.039,1128.456,707.4z"/>
				<path style="fill:#ED7497;" d="M1128.456,1104.619v19.216c-1.892,3.037-3.784,6.273-5.676,9.608
					c-0.05-0.05-0.099-0.05-0.148-0.1v-5.525c0-1.444-0.647-2.788-1.644-3.685v-21.456c0.747,0.448,1.443,0.846,2.041,1.096
					c0.647,0.298,1.245,0.447,1.743,0.547c0.248,0.05,0.497,0.05,0.796,0.1C1126.415,1104.52,1127.41,1104.569,1128.456,1104.619z"
					/>
				<path style="fill:#ED7497;" d="M1090.67,734.233v388.507h-7.467V735.577C1085.593,735.278,1088.082,734.831,1090.67,734.233z"/>
				<path style="fill:#ED7497;" d="M1173.36,713.523l-6.223,351.568c-1.096,0.646-2.19,1.294-3.286,1.941
					c-1.194,0.846-2.688,1.842-4.281,2.788l6.322-359.932C1168.432,711.034,1170.921,712.229,1173.36,713.523z"/>
				<path style="fill:#ED7497;" d="M1211.104,741.691l-7.152,184.723l-7.468-11.626l7.31-180.53
					C1206.432,736.251,1208.764,739.65,1211.104,741.691z"/>
				<polygon style="fill:#ED7497;" points="1241.713,786.804 1241.713,988.227 1241.165,987.33 1234.245,975.034 1234.245,769.828 
									"/>
				<path style="fill:#ED7497;" d="M1317.207,959.768v86.822c-2.289,2.738-4.729,5.327-7.467,7.717v-110.27L1317.207,959.768z"/>
				<path style="fill:#ED7497;" d="M1052.936,730.898v391.843h-7.468V725.421C1047.608,727.462,1050.098,729.354,1052.936,730.898z"
					/>
				<path style="fill:#ED7497;" d="M1015.149,702.023v420.717h-7.468V700.978c1.793-0.149,3.535-0.299,5.277-0.398
					C1013.656,701.078,1014.403,701.625,1015.149,702.023z"/>
				<polygon style="fill:#ED7497;" points="981.347,705.807 981.347,1122.74 973.879,1122.74 973.879,708.146 				"/>
				<path style="fill:#ED7497;" d="M943.586,725.464l-3.884,307.435l-7.467-64.419l3.884-234.802
					C938.16,730.841,940.649,728.102,943.586,725.464z"/>
			</g>
		</g>
		<path style="fill:#ED7497;" d="M901.893,807.713v74.376h-7.467v-55.508C896.865,820.357,899.354,814.035,901.893,807.713z"/>
		<polygon style="fill:#ED7497;" points="1234.245,1014.213 1234.245,1089.087 1241.713,1086 1241.713,1008.289 		"/>
		<polygon style="fill:#ED7497;" points="1203.927,1070.368 1203.927,1038.358 1196.46,1044.286 1196.46,1063.847 		"/>
		<polygon style="fill:#ED7497;" points="1279.448,872.63 1279.448,1070.567 1278.801,1070.816 1271.98,1073.604 1271.98,855.654 		
			"/>
	</g>
	<path style="fill:#2B2150;" d="M593.835,1094.94c-0.797,0-1.58-0.384-2.061-1.097c-0.773-1.138-0.472-2.686,0.666-3.454
		c9.748-6.587,21.143-10.068,32.952-10.068c1.375,0,2.489,1.113,2.489,2.489s-1.113,2.489-2.489,2.489
		c-10.813,0-21.241,3.187-30.162,9.213C594.803,1094.802,594.316,1094.94,593.835,1094.94z"/>
	<path style="fill:#2B2150;" d="M625.392,1198.194c-32.495,0-58.933-26.44-58.933-58.938c0-13.38,4.604-26.477,12.966-36.883
		c0.86-1.075,2.431-1.237,3.5-0.382c1.069,0.86,1.24,2.426,0.379,3.498c-7.764,9.665-11.867,21.34-11.867,33.767
		c0,29.753,24.206,53.959,53.955,53.959c1.375,0,2.489,1.113,2.489,2.489S626.768,1198.194,625.392,1198.194z"/>
	<path style="fill:#2B2150;" d="M1218.821,1214.023c-14.817,0-28.814-4.799-40.487-13.88c-1.089-0.844-1.283-2.406-0.438-3.493
		c0.841-1.087,2.411-1.281,3.49-0.436c10.793,8.395,23.735,12.83,37.435,12.83c33.643,0,61.014-27.371,61.014-61.016
		c0-16.931-7.127-33.244-19.549-44.761c-1.006-0.934-1.069-2.509-0.131-3.518c0.929-1.012,2.519-1.067,3.515-0.134
		c13.438,12.455,21.144,30.101,21.144,48.412C1284.813,1184.419,1255.211,1214.023,1218.821,1214.023z"/>
	<path style="fill:#63BEB2;" d="M785.5,439.268l-69.198,55.458l-38.084,30.517l-68.701,55.06l-6.87-69.447
		c-0.398-3.833,1.195-7.518,4.132-9.907l13.093-10.057c0,0-12.73-15.018-12.744-15.034c-15.843-18.688-13.698-47.619,4.363-64.014
		c18.055-16.39,46.461-16.26,63.849,1.133c0.879,0.88,1.723,1.796,2.529,2.743l14.288,16.827l16.479-13.192
		c2.987-2.39,6.97-3.136,10.554-1.941L785.5,439.268z"/>
	<path style="fill:#2B2150;" d="M1046.978,1087.675c-1.19,0-2.246-0.86-2.45-2.078c-7.292-43.524-51.426-110.909-55.048-114.465
		c-0.948-0.936-1.045-2.496-0.156-3.488c0.885-0.987,2.348-1.15,3.379-0.304c3.194,2.625,49.253,72.754,56.735,117.435
		c0.229,1.356-0.69,2.64-2.042,2.866C1047.255,1087.665,1047.114,1087.675,1046.978,1087.675z"/>
	<g>
		<path style="fill:#F5AE9E;" d="M1189.341,549.289c-1.288,11.397-19.724,29.366-21.86,33.36c-1.061,1.983-2.832,3.978-4.127,5.471
			c-0.1,0.1-0.149,0.199-0.198,0.299c-6.024-4.032-12.895-5.875-14.438,0.149c-8.114,31.861-32.758,45.004-84.084,30.916
			c-10.803-2.937-26.385-7.318-38.582,0.448c-13.74,8.811-29.919-10.604-36.142-19.216c-4.033-13.392-6.173-27.928-6.023-43.112
			c0.099-11.201,0.746-21.506,1.991-30.965c19.466-3.286,40.822-16.03,52.621-30.965c5.178,10.803,15.532,18.121,26.484,20.262
			c11.002,2.141,22.353-0.547,32.11-6.123c3.435-1.941,31.363-19.714,31.363-19.714s-7.165,22.008-3.236,33.156
			c3.011,8.542,6.721,18.569,14.786,21.407c4.58,1.593,9.607,3.186,14.438,3.583c0.206-6.648,6.105-13.359,11.599-16.576
			c3.485-2.041,10.887-2.638,16.673,0.94c3.026,1.871,4.865,4.14,5.98,7.487C1189.633,542.905,1189.673,546.351,1189.341,549.289z"
			/>
		<path style="fill:#F5AE9E;" d="M1134.629,699.735c-7.069,9.309-23.597,28.673-36.093,32.457
			c-39.478,11.898-56.354-5.775-62.478-20.759c17.822,5.277,40.474,6.771,61.433,1.045
			C1111.679,708.595,1124.075,705.062,1134.629,699.735z"/>
		<path style="fill:#EE7E94;" d="M1015.697,621.873c-10.753-2.041-21.108-14.636-25.837-21.158
			c-0.996-3.335-1.842-6.721-2.589-10.156c2.838-2.539,6.422-4.281,10.504-4.929c11.5-1.892,22.402,5.924,24.244,17.474
			C1023.215,610.273,1020.576,617.193,1015.697,621.873z"/>
		<path style="fill:#2B2150;" d="M1045.544,604.101c-3.831,0-7.691-0.8-10.463-1.548c-3.952-1.072-6.66-4.789-6.437-8.841
			l2.28-41.29c0.116-2.061,2.022-3.626,3.933-3.522c2.062,0.114,3.637,1.876,3.525,3.935l-2.28,41.288
			c-0.029,0.544,0.369,1.069,0.929,1.22c6.5,1.755,12.256,1.697,13.957-0.153c1.4-1.517,3.758-1.609,5.28-0.214
			c1.512,1.398,1.609,3.761,0.214,5.275C1053.789,603.172,1049.681,604.101,1045.544,604.101z"/>
		<path style="fill:#2B2150;" d="M1013.841,573.103c-1.799,0-3.384-1.303-3.681-3.136l-1.23-7.592
			c-0.331-2.037,1.05-3.955,3.087-4.283c2.047-0.321,3.953,1.053,4.283,3.087l1.231,7.591c0.33,2.037-1.051,3.955-3.088,4.283
			C1014.239,573.088,1014.04,573.103,1013.841,573.103z"/>
		<path style="fill:#2B2150;" d="M1077.563,565.951c-1.799,0-3.384-1.303-3.681-3.136l-1.229-7.591
			c-0.331-2.037,1.05-3.955,3.087-4.283c2.071-0.335,3.952,1.053,4.283,3.087l1.229,7.591c0.331,2.037-1.05,3.955-3.087,4.283
			C1077.961,565.937,1077.762,565.951,1077.563,565.951z"/>
		<path style="fill:#EE7E94;" d="M1117.217,593.209c1.871,11.537-5.966,22.407-17.502,24.278
			c-11.538,1.872-22.407-5.964-24.279-17.501c-1.871-11.538,5.965-22.408,17.502-24.279
			C1104.475,573.835,1115.345,581.671,1117.217,593.209z"/>
		<path style="fill:#2B2150;" d="M1087.14,542.805c-0.359,0-0.724-0.051-1.089-0.163c-3.433-1.042-13.656-3.474-19.67-2.222
			c-1.983,0.42-4.002-0.863-4.425-2.885c-0.423-2.018,0.87-3.999,2.888-4.422c9.131-1.913,22.812,2.21,23.385,2.387
			c1.974,0.603,3.082,2.689,2.479,4.66C1090.222,541.769,1088.739,542.805,1087.14,542.805z"/>
		<path style="fill:#2B2150;" d="M1001.93,555.098c-1.283,0-2.533-0.661-3.228-1.85c-1.041-1.779-0.442-4.067,1.337-5.107
			c1.089-0.637,10.836-6.196,17.963-5.331c2.047,0.246,3.506,2.105,3.263,4.152c-0.248,2.049-2.076,3.508-4.157,3.262
			c-3.456-0.435-10.029,2.45-13.296,4.363C1003.218,554.933,1002.566,555.098,1001.93,555.098z"/>
		<path style="fill:#EE7E94;" d="M1048.922,645.789c-2.736,0-5.362-0.398-7.725-1.074c-6.787-1.938-11.449-6.114-11.892-10.642
			c-0.131-1.368,0.87-2.586,2.241-2.717c1.288-0.097,2.586,0.868,2.718,2.236c0.194,2.027,3.107,4.854,8.299,6.337
			c6.962,1.991,16.763,1.055,23.351-7.562c0.836-1.094,2.401-1.298,3.49-0.464c1.094,0.833,1.298,2.397,0.467,3.488
			C1064.003,643.057,1056.088,645.789,1048.922,645.789z"/>
	</g>
	<path style="fill:#2B2150;" d="M1153.521,572.078c-1.23,0-2.261-0.917-2.426-2.168c-0.18-1.346,0.792-2.591,2.139-2.793
		c1.585-0.238,6.398-5.357,10.302-10.956c0.788-1.133,2.334-1.395,3.467-0.62c1.128,0.785,1.405,2.336,0.617,3.464
		c-2.61,3.748-9.179,12.521-13.812,13.056C1153.71,572.073,1153.613,572.078,1153.521,572.078z"/>
	<path style="fill:#2B2150;" d="M1799.33,1102.93c-1.24-0.6-2.59-0.899-3.68-0.899c-13.391,0-24.351,15.479-34,29.17
		c-2.391,3.439-4.681,6.67-6.771,9.26c-10.66,13.34-11.649,33.06-24.45,44.76c-8.31,7.61-18.319,12.54-28.92,17.771
		c-12.649,6.22-25.689,12.649-35.5,24.05c-4.18,4.82-7.46,10.25-10.199,16.03c-0.15-2.49-0.95-5.63-0.7-7.67
		c1.35-11.75,9.21-21.561,15.93-31.261c8.56-12.35,15.729-25.89,18.62-40.63c2.439-12.34-4.78-16.97-16.23-16.67
		c18.221-27.39,26.641-61.189,23.351-93.899c-0.45-4.53-3.24-6.82-7.22-3.83c-21.461,16.029-38.381,38.04-48.49,62.83
		c-1.99,4.88-3.931,9.75-5.771,14.68c-1.05,2.939-1.989,8.72-5.38,9.96c-3.73,1.29-7.07-3.83-9.91-5.38
		c-4.729-2.59-9.75,0.1-13.29,3.64c-9.56,9.41-10.75,27.13-11.7,41.32c-0.5,7.37-0.989,14.34-2.489,17.32
		c-1.49,3.039-2.49,4.829-5.771,3.34c-1.1-0.45-5.529-2.84-5.779-4.08c-1.091-5.83-2.58-11.65-4.381-17.33
		c-2.09-6.771-5.92-15.78-14.38-15.78c-3.39,0-6.479,1.49-9.159,2.84c-5.48,2.59-6.631,1.04-7.971-4.58
		c-0.9-3.89,0.45-12,1.891-20.609c2.689-16.38,6.08-36.69-1.94-49.641c-3.58-5.77-7.42-8.56-11.8-8.56c-4.23,0-7.57,2.64-10.2,4.78
		c-1.1,0.899-2.74,2.189-2.94,2.39c-0.8-0.5-3.68-4.23-6.819-29.12c-6.87-55.01-37.641-87.32-38.931-88.67
		c-1.79-1.84-4.93-1.34-6.119,1.05c-0.45,1.04-11.351,26.08-9.66,77.06c0.05,1.64,0.449,3.79,1.09,6.319
		c-1.04-0.439-2.09-0.84-3.13-1.239c-3.09-1.141-6.181-2.141-9.311-2.94l19.761-160c2.84-22.65-3.78-45.5-17.62-61.03
		c-10.46-11.7-24.101-18.18-38.391-18.18H1255.5c0,0-21.11-47.84-22.35-50.28c-4.431-9.01-10.551-21.4-19.521-29.37
		c-2.29-2.09-4.82-4.18-7.66-6.47c-9.91-7.96-20.31-13.19-31.71-15.93c-5.38-1.29-11.399-2.34-17.33-3.24
		c-0.25-0.05-16.779-2.34-19.109-2.68c25.14-13.05,40.77-32.26,43.16-65.02c0.199-2.74,0.5-8.41,0.59-8.46
		c1.1-0.1,27.43-3.09,41.42-49.44c14.89-49.43-6.32-80-11.351-86.27c0.2-17.78-2.239-26.74-24.39-46.15
		c-10.16-8.91-28.28-8.27-35.2-7.62c-0.35,0-2.93-9.71-3.13-10.25c-8.67-21.36-30.37-19.07-44.81-17.58
		c-1.74,0.2-3.98,0.85-5.67,0.15c-1.551-0.65-2.591-2.19-3.69-3.38c-8.61-9.26-21.06-14.04-34.25-13.25
		c-7.12,0.45-14.09,2.64-20.11,6.48c-3.04,1.89-5.819,4.23-8.309,6.82c-2.39,2.44-4.34,6.42-7.17,8.21
		c-2.94,1.84-7.22-0.2-10.21-1.04c-18.17-5.08-37.49,1.39-48.09,16.03c-10.2,14.03-10.6,34.69-1.69,48.78
		c-4.88,2.09-9.26,5.88-12.1,10.66c-3.48,5.87-4.18,12.29-1.89,18.07c4.58,11.8,16.53,23.84,29.32,22.9c0.45-0.05,0.9-0.05,1.4-0.15
		c-0.9,8.26-1.4,17.12-1.5,26.53c-0.1,11.5,1.1,22.85,3.49,33.81c0.2,1.04,0.44,2.09,0.74,3.13c-0.54,0.65-0.84,1.45-0.89,2.29
		c-0.5,20.16,0.89,51.98,1.74,59.74c2.04,17.62,7.97,31.02,18.37,41.07c-21.31,2.44-43.26,9.31-58.939,22.11
		c-4.78,3.88-9.26,8.31-12.65,13.49c-5.42,8.26-9.06,17.92-13.19,26.88c-4.48,9.71-8.81,19.47-13.09,29.22
		c-2.94,6.72-5.88,13.39-8.57,20.21h-42.61c-28.28,0-51.82,24.85-56.06,59.1l-1.19,9.8c0,0-160.25,0-160.35,0
		c-2.19,0-3.89,2-3.69,4.14l18.82,162.14c-7.32-1.79-15.03-2.79-22.95-2.79c-53.91,0-97.82,43.91-97.82,97.88
		c0,39.471,23.2,74.471,59.34,89.95v95.59c0,0-76.12,184.391-76.37,185.04c-0.84,2.091,0.35,4.53,2.74,5.08l22.3,4.431l-4.93,7.17
		c-7.21,1.34-39.17,6.92-67.15,6.92c-14.79,0-26.09-1.54-33.61-4.53c-5.97-2.39-11.7-3.59-17.02-3.59c-4.83,0-9.16,0.95-13.05,2.54
		c0,0,0-990.48,0-994.31c0-46.45,24.55-90.51,63.93-115.1c40.57-25.39,94.68-27.53,137.05-5.38c-15.78,18.17-16.38,45.75-0.3,64.72
		l10.21,12.05l-9.96,7.66c-3.98,3.19-6.07,8.12-5.58,13.19c0,0,6.82,68.81,6.87,69.45c0.05,0.4,0.15,0.75,0.35,1.1
		c0.2,0.55,0.55,0.99,0.95,1.34c0.2,0.15,0.35,0.3,0.55,0.4c1.29,0.75,2.93,0.8,4.18-0.25l65.41-52.42c0.05,0.05,0.05,0.1,0.1,0.15
		c0.35,0.55,0.75,1.04,1.2,1.54c0.59,0.7,1.24,1.35,1.89,1.99c1.94,1.8,4.18,3.29,6.62,4.38c3.38,1.5,7.07,2.29,10.9,2.29
		c6.97,0,13.89-2.58,19.42-7.31c12.04-10.21,14.24-27.48,4.93-38.59c0,0-0.05-0.05-0.1-0.1c-0.05-0.04-0.1-0.14-0.2-0.19
		c0,0,65.41-52.43,65.86-52.77c1.59-1.3,1.74-3.54,0.75-5.03c-0.25-0.35-0.5-0.6-0.85-0.85c-0.1-0.1-0.2-0.2-0.35-0.2
		c-0.2-0.15-0.4-0.25-0.6-0.3l-66.31-21.85c-4.83-1.59-10.05-0.65-14.04,2.54l-13.69,10.95l-0.1-0.1l-11.84-13.94
		c-3.54-4.18-7.72-7.67-12.3-10.45c-7.67-4.68-16.48-7.17-25.69-7.17c-11.75,0-23.2,4.18-32.16,11.85l-0.55,0.49
		c-20.66-11.25-43.9-17.22-68.05-17.22c-46.65,0-90.65,20.91-118.43,58.79c-17.83,24.4-27.53,54.17-27.53,84.34v998.59
		c-15.59,11.5-21.81,34.55-23.65,43.069l-67.06,33.45c-1.29,0.6-2.09,1.891-2.09,3.34v27.87H201.2c-2.09,0-3.74,1.7-3.74,3.74
		c0,2.09,1.65,3.729,3.74,3.729h1579.86c2.039,0,3.739-1.64,3.739-3.729c0-2.04-1.7-3.74-3.739-3.74H1635.84
		c14.141-6.77,24.3-25.68,24.3-47.89v-199.38c0-2.04-1.25-3.73-1.25-3.73c1.5-15.979,11.36-32.16,30.421-50.13
		c2.64-2.49,5.329-4.93,8.02-7.42c15.28-13.89,31.06-28.28,38.33-48.74c2.939-8.41,4.33-17.47,5.63-26.229
		c1.99-13.25,3.83-25.79,10.95-35.5c12.99-17.92,23.5-35.99,31.16-53.811c2.939-6.83,4.43-15.49,6.08-24.7
		c2.34-13.54,4.819-27.479,11.739-34C1803.96,1106.31,1801.97,1104.07,1799.33,1102.93z M720.53,514.14
		c-0.69,5.38-3.53,10.41-7.91,14.14c-4.18,3.58-9.36,5.53-14.59,5.53c-5.57,0-10.45-2.19-13.84-6.13c-0.4-0.44-0.75-0.89-1.04-1.39
		l33.1-26.54c0.15,0.1,0.25,0.25,0.35,0.35C719.84,503.89,721.23,508.87,720.53,514.14z M614.89,414.03l0.7-0.6
		c7.67-6.47,17.38-10.06,27.33-10.06c12.45,0,24.2,5.43,32.21,14.89l11.8,13.89l-27.58,22.1c-1.64,1.3-1.89,3.64-0.6,5.28
		c1.3,1.59,3.64,1.84,5.23,0.55l47.14-37.74c2-1.59,4.58-2.09,7.02-1.24l59.79,19.66l-61.68,49.44l-6.42,5.12l-29.57,23.7
		l-6.42,5.13l-61.19,49.03l-6.17-62.62c-0.25-2.54,0.8-5.03,2.74-6.57l32.51-25.04c1.59-1.25,1.89-3.59,0.64-5.23
		c-1.24-1.64-3.58-1.94-5.22-0.7l-16.63,12.8l-10.46-12.25c-7.31-8.61-10.8-19.52-9.9-30.77
		C601.05,431.55,606.28,421.35,614.89,414.03z M1580.88,1201.6c7.771,6.021,13.99,3.681,18.32-4.729
		c2.2-4.38,2.689-11.351,3.239-20.21c0.9-12.95,1.94-29.08,9.511-36.55c7.52-7.36,8.16,3.29,14.83,5.279
		c3.84,1.15,7.569-2.14,9.859-5.42c4.78-6.92,7.271-15.09,10.36-22.91c9.061-22.75,23.89-43.159,42.76-58.739
		c1.84,27.58-5.029,55.66-19.46,79.21c-1.649,2.729-3.439,5.52-3.939,8.71c-1.04,7.319,4.68,8.41,10.359,8.01
		c3.78-0.25,6.37,1.8,5.92,5.63c-2.54,22.3-19.81,39.73-30.12,59.69c-2.64,5.13-4.88,10.6-5.369,16.38
		c-0.551,5.77,0.84,11.899,4.68,16.229c0,0.25-4.93,14.83-7.07,22.15c-5.63,19.17-10.91,37.189-24.35,48.439
		c-5.62,4.78-12.29,7.811-19.311,11.051c-6.92,3.189-14.09,6.47-20.369,11.55c-5.82,4.68-10.45,9.86-13.881,15.33
		c-3.239-10.101-9.56-19.561-18.67-27.681c-0.6-0.489-1.199-1.039-1.8-1.489c-4.33-39.58-0.64-87.42,22.16-125.351
		c3.88-6.38,6.271-7.319,7.37-7.319C1577.35,1198.86,1579.14,1200.25,1580.88,1201.6z M1442.94,1268.6
		c7.909,21.91,16.67,37.54,27.529,49.19c7.061,7.67,15.28,13.74,23.141,19.61c4.63,3.39,9.26,7.119,13.84,10.71
		c19.27,15.08,23.45,41.27,24.05,41.27h-54.01c0.64-28.78-18.28-53.97-32.86-69.05c-2.64-2.79-5.38-5.53-8.12-8.26
		c-14.58-14.641-29.72-29.771-36.34-50.44c-2.79-8.56-4.08-18.17-5.32-27.43c-2.05-14.83-4.14-30.16-12.199-42.41
		c-12.75-19.22-22.95-38.58-30.42-57.65c-2.641-6.72-4.08-15.83-5.62-25.489c-2-12.49-4.04-25.24-8.92-34.551
		c8.17,4.03,16.68,17.33,23.199,27.431c2.441,3.84,4.78,7.47,6.971,10.56c4.43,6.12,7.42,14.18,10.26,21.95
		c3.729,10.21,7.57,20.76,14.979,28.18c9.11,9.11,20.07,15.03,30.67,20.811c12.54,6.77,24.341,13.189,33.2,24.439
		c10.21,13.09,15.09,31.46,19.87,49.19c5.62,21.2,11.45,43.109,26.58,57.05c6.42,5.92,13.84,9.66,21.01,13.29
		c6.82,3.44,13.24,6.67,18.771,11.65c10.649,9.46,16.97,20.96,18.37,33.149c0.6,5.08,0.3,12.4-0.851,17.58h-23.64
		c-3.04-19.27-15.59-35.85-26.39-45.06c-12-10.2-25.79-18.32-36.591-29.91c-10.359-11.16-18.77-26.24-26.479-47.5
		C1446.57,1263.97,1441.74,1265.52,1442.94,1268.6z M1469.92,1389.38h-23.1c-4.431-3.74-9.46-8.51-14.84-14.54
		c-8.461-9.46-12.591-22.25-22.25-30.66c-3.98-3.54-8.211-5.18-13.29-5.18c-6.421,0-12.551,2.29-18.921,0.45
		c-3.88-1.15-6.92-7.57-9.51-10.51c-3.529-3.881-7.71-7.271-12.939-8.46c-8.221-1.841-15.28,1.89-21.96,6.22
		c-7.66,4.979-14.28,5.979-23.29,5.979c-12.551,0-24.101-1.6-31.42-2.84c17.08-12.649,65.22-45.16,108.88-45.16
		c5.92,0,11.649,0.601,16.97,1.851c9.71,14.58,22.9,26.43,35,38.979C1461.46,1348.46,1471.21,1368.82,1469.92,1389.38z M1473,978.42
		c8.52,10.7,27.78,38.93,32.91,79.65c3.29,26.59,6.82,35.55,13.79,35.55c8.37,0,11.85-13.44,19.02-2.04
		c6.521,10.55,3.38,29.37,0.891,44.45c-1.641,9.76-3.03,18.22-1.79,23.6c1.25,5.33,4.029,12.05,10.51,12.05
		c5.07,0,8.96-4.58,13.89-4.58c6.771,0,10.8,24.69,11,24.69c-3.84,1.04-7.42,4.479-11.05,10.55
		c-22.46,37.44-27.09,83.99-23.7,123.71c-3.489-2.09-7.12-3.93-10.649-5.72c-7.07-3.54-13.69-6.92-19.37-12.1
		c-13.49-12.44-18.82-32.41-24.44-53.471c-4.38-16.62-8.96-33.7-17.93-47.34c3.99-4.08,7.22-10.2,7.17-20.81
		c-0.05-11.351-4.28-22.75-8.81-34.851c-5.771-15.38-12.29-32.85-11-53.359c0.449-6.87,2.79-6.87,4.529-6.87
		c3.53,0,6.87,1.489,10.4,1.489c3.89,0,6.479-2.239,6.87-5.97c1.55-14.34-8.76-26.74-9.21-40.729
		C1464.84,1010.93,1470.02,988.38,1473,978.42z M1453.89,1058.62c2.891,1.09,5.721,2.29,8.46,3.63c0.7,0.4,3.391,11.7,4.28,14.79
		c0.75,2.34,2.34,6.02,1.2,8.46c-0.1,0.2-9.16-1.44-9.86-1.44c-5.08,0-11.25,2.391-12,13.891c-1.34,22.1,5.48,40.319,11.45,56.399
		c4.48,11.95,8.32,22.261,8.37,32.261c0.05,7.37-1.651,11.649-4.24,14.739c-9.6-11.55-22.1-18.319-34.25-24.89
		c-10.55-5.729-20.56-11.16-28.92-19.52c-6.22-6.271-9.66-15.58-13.24-25.44c-3.04-8.26-6.18-16.82-11.199-23.79
		c-2.091-2.89-4.381-6.43-6.771-10.21c-9.66-15.03-20.61-32.06-34.11-32.06c-3.479,0-9.5,2.79-5.72,6.72
		c7.021,7.27,9.51,22.7,11.901,37.64c1.59,10.101,3.13,19.61,6.02,27.03c7.67,19.56,18.12,39.43,31.17,59.09
		c5.771,8.811,8.11,19.62,9.851,31.22h-116.84c29.119-17.479,47.25-48.84,47.25-83.739c0-28.131-11.95-53.57-31.021-71.391
		c6.021-2.49,12-4.729,17.57-8.16c4.729-2.939,9.31-6.72,13.2-10.859h106.029C1433.23,1052.99,1443.83,1054.89,1453.89,1058.62z
		 M1410.97,816.92c12.15,0,23.75,5.58,32.811,15.68c12.45,13.99,18.37,34.6,15.83,55.21l-19.71,159.31
		c-5.73-1.101-11.551-1.59-17.431-1.59h-42.01l19.16-156.22c2.84-22.85-3.78-45.85-17.62-61.48c-3.88-4.39-8.21-8.07-12.84-10.91
		H1410.97z M1343.62,816.97c12.149,0,23.74,5.58,32.81,15.78c12.44,14.09,18.37,34.9,15.83,55.66l-19.27,157.12h-50.33
		c3.78-5.28,6.82-11.11,8.96-17.23c4.479-12.84,5.33-27.63,1.59-40.72c-1.14-4.03-2.49-7.97-4.28-11.75l-15.779-33.25l-54.41-125.61
		H1343.62z M979.7,523.75c-9.06,0.6-18.17-8.71-21.85-18.17c-1.89-4.88,0.05-9.36,1.39-11.6c2.74-4.63,7.62-8.02,12.4-8.61
		c2.99-0.3,4.23-3.99,2.34-6.18c-10.01-11.15-10.6-31.31-1.35-44.05c8.67-11.95,25.15-17.38,40.08-13.25
		c1.1,0.3,9.11,2.84,9.46,1.95c-2.29,6.07-3.39,12.79-3.04,19.21c0.25,4.78,7.72,4.43,7.47-0.4c-0.6-11.1,4.181-23.69,11.4-29.97
		c7.07-6.17,13.24-10.35,23-10.95c10.95-0.65,21.21,3.29,28.33,10.85c1.84,2,3.63,4.09,6.22,5.18c3.09,1.3,6.271,0.75,9.46,0.4
		c17.271-1.79,30.91-1.99,37.04,12.99c0.3,0.7,2.73,9.51,2.83,9.51c-2.39,0.7-5.32,1.64-9.21,3.04c-4.33,1.54-1.99,8.76,2.49,7.07
		c12.6-4.53,21.359-4.58,21.96-5.03c7.71,0,16.68,1.2,22.25,6.07c20.66,18.17,22.05,24.95,21.81,40.78
		c-2.79,4.63-5.58,6.97-14.689,14.48c-3.58,2.99,1.14,8.86,4.779,5.73c7.171-5.93,10.9-9.01,13.79-12.7
		c6.421,9.56,19.91,36,7.771,76.32c-10.51,34.9-28.18,42.37-33.46,43.86c-5.13-5.73-16.58-25.39-15.93-30.02
		c0.25-1.84,2.739-4.23,3.88-5.67c1.8-2.25,4.279-3.79,6.13-5.98c4.03-4.68,7.51-9.91,11.1-14.93c3.13-4.33,5.28-8.77,5.521-14.19
		c0.6-12.45-5.57-18.07-9.351-20.31c-6.779-4.04-15.14-3.39-19.62-0.7c-5.67,3.38-10.449,9.36-12.59,15.63
		c-3.439-0.65-6.92-1.79-10.26-2.94c-7.52-2.63-12.25-14.58-13.04-21.9c-0.6-5.28-0.05-10.55,0.94-15.73
		c0.5-2.59,2.34-13,3.04-13.69c2.29-2.24,4.079-4.33,5.079-6.27c2.24-4.34-4.38-7.82-6.619-3.49c-3.641,7.02-12.551,12-18.721,16.38
		c-13.189,9.36-29.37,19.12-46.199,15.78c-10.311-1.99-19.471-8.96-23.851-18.17c-1.189-2.49-4.63-2.89-6.32-0.7
		C1023.07,509.26,999.02,522.31,979.7,523.75z M989.26,529.82c17.58-3.73,36.34-14.33,48.641-27.68
		c5.97,8.87,15.68,15.39,26.39,17.48c9.849,1.89,20.61,0.3,30.71-4.53c3.34-1.6,6.47-3.59,9.61-5.58
		c4.88-3.08,9.659-6.12,14.04-9.11c1.489-1.04,2.939-2.09,4.33-3.08c0,0-0.7,3.53-0.851,4.58c-0.439,2.34-0.89,4.68-1.189,7.06
		c-0.7,4.73-0.851,9.51,0.399,14.19c0.69,2.84,1.94,5.68,3.08,8.37c2.19,5.32,5.08,10.85,9.86,14.33c1.39,1,2.89,1.8,4.479,2.34
		c3.29,1.2,7.971,2.84,13.09,3.59c0.4,0.05,1.051,0.79,1.5,0.94c2.54,0.85,5.131-1.34,4.881-3.98c-0.351-2.84,3.93-9.41,7.409-12.25
		c4.58-3.88,11.061-3.73,15.691,0.1c3.68,3.04,4.53,8.02,4.33,12.55c-0.3,6.42-5.13,11.25-8.57,16.28
		c-3.28,4.78-6.87,9.61-11.3,13.49c-1.19,1.05-5.67,5.18-7.46,3.39c-1.15-1.15-3.191-1.35-4.73-1.35c-4.239,0-7.42,2.49-8.47,6.67
		c-5.87,23.05-20.06,33.75-44.55,33.75c-9.96,0-21.71-1.84-35.2-5.52c-6.47-1.79-14.54-4.03-22.85-4.03
		c-7.12,0-13.34,1.69-18.471,4.97c-1.739,1.1-3.529,1.65-5.479,1.65c-9.11,0-19.66-11.65-25.29-19.37
		c-0.89-3.03-1.69-6.17-2.33-9.31c-2.3-10.4-3.44-21.2-3.34-32.11C987.72,547.7,988.22,538.39,989.26,529.82z M992.7,655.63
		c-0.75-6.08-1.74-28.73-1.84-47.45c6.52,7.87,16.82,17.72,27.72,17.72c3.39,0,6.58-0.94,9.46-2.78c4.04-2.59,8.77-3.84,14.49-3.84
		c7.319,0,14.84,2.09,21.109,3.84c13.941,3.78,26.33,5.72,36.941,5.72c27.68,0,45.1-13.24,51.77-39.38c0.25-0.99,0.5-1.04,1.25-1.04
		c0.2,0,5.37,2.64,5.42,3.04c0.65,7.26,8.521,21.3,14.591,29.67c2.54,54.56-26.83,73.97-77.11,87.76
		c-8.57,2.34-17.73,3.54-27.29,3.54c-15.229,0-30.91-3.19-42.91-8.56c-4.38-1.9-8.41-4.29-12.2-7.12
		C1001.56,687.39,994.89,674.49,992.7,655.63z M1121.88,708.59c-7.81,8.92-17.22,17.83-24.39,20.02
		c-8.26,2.49-15.931,3.78-22.75,3.78c-11.5-0.05-20.76-3.53-27.53-10.5c-1.44-1.5-2.74-3.09-3.83-4.73
		c8.26,1.79,17.021,2.74,25.83,2.74c10.21,0,20.07-1.3,29.28-3.79C1106.8,713.82,1114.62,711.38,1121.88,708.59z M926.69,759.27
		c5.42-13.49,12.19-26.68,24.54-35.19c5.33-3.69,13.49-8.42,22.6-12.1c4.98-2.04,26.98-3.98,40.32-6.12
		c0.649-0.1,2.439,1.49,3.04,1.84c3.39,1.94,7.069,3.53,10.699,4.93c0.801,0.3,5.181,1.24,5.481,1.89
		c1.89,4.28,4.63,8.66,8.51,12.59c8.22,8.47,19.271,12.7,32.86,12.75c7.569,0,15.93-1.4,24.89-4.13
		c10.851-3.29,24-17.28,32.51-27.68c5.28,0.64,10.21,1.29,14.74,1.99c-15.04,29.02-52.38,55.06-85.43,48.29
		c-19.771-4.03-34.851-17.63-40.33-36.24c-0.89-3.09-5.62-1.75-4.78,1.39c5.93,20.16,22.851,35.35,44.11,39.73
		c3.89,0.79,7.819,1.19,11.75,1.19c32.56,0,66.109-25.64,79.8-53.52c6.87,1.2,13.74,2.15,20.51,3.79
		c10.311,2.49,19.721,7.27,28.83,14.53c11.5,9.36,18.62,20.07,25.141,33.31c6.069,12.6,11.649,25.39,17.22,38.18
		c9.91,22.41,19.77,44.86,29.62,67.26c10.31,23.45,20.609,46.85,30.87,70.29c5.92,13.4,11.6,26.89,17.72,40.18
		c2.439,5.38,4.38,10.95,5.33,16.83c4.33,26.63-9.811,54.81-34.901,65.96c-6.92,3.08-63.42,26.03-63.42,26.03l-38.33-33.5
		l13.49-10.75c12.29,8.26,23.79,18.069,31.71,30.76c1.59,2.59,6.02,0.7,4.43-2.29c-1.1-2.09-2.89-4.63-5.229-7.46
		c-6.17-7.52-16.181-16.93-26.83-24.25c0,0,43.16-34.35,43.21-34.35c4.38-0.051,8.86,0.899,13.14,1.79
		c3.19,0.649,8.721,3.79,11.8,1.8c2.69-1.75,2.19-5.931-0.89-6.87c-3.24-1-6.63-1.65-9.91-2.34c-4.84-0.99-13.439-2.07-13.439-1.86
		l-7.12-11.59c0,0-58.4-95.43-58.601-95.63c0-0.94-9.6-45.3-9.649-45.55c-1-4.63-8.271-3.19-7.32,1.59c0,0,9.16,42.17,10.65,47v-0.5
		c0-0.1,0-0.15,0.05-0.2v0.2l-0.05,0.5c0,0-4.73,107.58-8.41,151.69c-0.351,4.38-0.75,8.91-1.101,13.49
		c-0.199,0.1-10.949,6.32-17.22,10.25c-9.109,5.73-22.6,14.24-33.85,12.95c-2.69-0.351-6.08-0.351-8.521,2.04
		c-2.739,2.689-2.739,7.07-2.34,10.95c0.5,5.08,11.25,12.25,15.58,12.989c0.95,0.15,6.68,0.551,7.97,0.601
		c-0.699,1.2-6.17,11.5-6.17,11.5s-6.229-1.19-8.569-1.19H953.42l-1.1-9.56l-0.84-7.42l-1.35-11.4l-0.84-7.37
		c0,0-19.62-169.56-19.67-169.91c-0.05-0.64,0.9-4.88,1-6.07c0.15-2.49,0.45-4.93,0.74-7.42c3.04-24.44,12.7-57.95,26.04-89.11
		c1.89-4.38-4.98-7.37-6.87-2.94c-11.3,26.34-19.81,53.57-24.24,76.42c-0.05,0.05-0.05,0.1-0.05,0.15v-0.15l-0.3-2.54
		c-0.25-1.89-1.84-3.29-3.74-3.29h-43.46C880.69,873.92,919.17,777.94,926.69,759.27z M843.9,1366.13v0.4l15.03,133.81h-0.3
		l-31.41,3.04l-29.42-299.09c-0.25-2.59,1.84-4.83,4.63-5.13l296.45-21.46c1.4-0.101,2.39-1.29,2.29-2.69
		c-0.09-1.34-1.29-2.39-2.63-2.29l-296.56,21.46c-5.63,0.65-9.66,5.28-9.16,10.601l29.42,299.1l-98.82,9.561l-13.24-310.25
		c-0.65-8.86,3.08-18.771,9.41-27.53c4.53-6.271,10.1-11.851,16.58-16.13c0,0,217.8,0,217.9,0h152.88
		c-2.29,7.97-2.44,14.689,1.09,18.42c3.49,3.38,7.97,6.17,12.9,8.26v68.39c-4.313,0.433-12.471,1.82-17.87,1.53l-260.08-2.26h-0.04
		c-2.13,0-3.87,1.72-3.89,3.85c-0.02,2.15,1.71,3.91,3.86,3.931c0,0,261.93,2.33,262.95,2.33c5.01,0,10-0.641,14.86-1.921
		c0.069-0.02,0.14-0.04,0.21-0.069v70.59H849.62c0,0-2.74-51.88-2.74-52.23c-0.25-4.779-7.71-4.479-7.46,0.4L843.9,1366.13z
		 M727.05,1549.43l9.61-1.24l-2.49,7.461c-1.44,0.699-11.79,5.18-14.58,6.33c-17.38,7.119-45.5,17.47-67.16,19.859
		c-0.2-4.979-0.9-9.91-2.19-14.74c-1.29-4.92-3.29-8.359-5.68-10.8l2.89-15.08l3.84,0.74c0.24,0.05,0.49,0.101,0.74,0.101
		c1.55,0,2.99-0.99,3.54-2.49l54.91-154.42c0,0,6.92,161,6.92,161.439C717.6,1551.62,723.97,1549.83,727.05,1549.43z
		 M723.67,1518.42l99.07-9.56l2.04,20.46l-97.73,12.59l-2.38,0.3L723.67,1518.42z M719.59,1570.04c2.74-1.09,16.63-7.07,18.32-7.86
		l0.45,0.051c2.73,0.39,10.15,1.989,21.8,7.859c-7.87,3.98-38.18,17.521-40.57,18.57c-8.17,3.439-14.94,6.02-17.87,6.62
		c-8.97,1.89-18.72,0.649-26.79-3.431c-1.89-1-4.78-2.689-6.77-5.13C686.28,1582.74,705.7,1575.67,719.59,1570.04z M742.14,1555.4
		l2.74-8.261l94.24-12.2l2.64,26.591c-3.99,14.09-25.84,21.85-39.63,21.85c-4.68,0-8.52-0.84-10.51-2.34
		C766.98,1562.77,749.96,1557.1,742.14,1555.4z M829.66,1528.67l-1.99-20.31l31.41-3.04c0.15,0,0.25-0.051,0.35-0.101l2.19,19.32
		L829.66,1528.67z M954.31,1126.47h69.95c29.67,0,59.34-0.1,88.96,0c6.67,0,7.021,3.79,3.84,9.61
		c-1.6,2.939-6.68,13.689-7.569,15.979H957.25l-1.49-13.14l-0.95-8.21L954.31,1126.47z M1113.32,1172.67
		c-3.13-3.33,1.689-16.229,8.76-29.92c1.55-3.08,3.24-6.22,4.979-9.26c6.37-11.25,13.341-21.7,17.631-26.38
		c2.239-2.44,0.29-6.32-2.94-6.221c-3.29,0.141-12.6,0.44-16.38-0.199c-1.99-0.301-8.17-4.73-9.36-6.671
		c-0.25-0.449-0.25-3.64,0.05-4.09c0.551-0.739,1.54-0.54,2.54-0.399c12.74,1.45,34.5-11.5,34.7-11.59
		c5.67-2.891,11-6.78,16.48-9.96c4.229-2.49,8.81-5.381,13.489-7.021c1.29-0.45,2.44-0.2,3.73-0.4c0,0,36.84,32.16,36.84,32.21
		c0,2.69-1.49,6.421-3.09,9.761c-8.01,16.43-33.45,48.689-50.68,68.8c-4.681,6.57-12.74,10.7-22.65,11.65
		C1134.73,1184.17,1120.99,1179.99,1113.32,1172.67z M1181.08,1054.09c-0.85,0.25-3.24,1.24-3.54,1.34
		c0-0.199,9.41-149.64,9.41-149.64s51.58,84.43,51.63,84.48l6.47,10.6l-62.63,49.83c-0.65,0.5-1.09,1.3-1.29,2.09
		C1181.13,1052.94,1181.03,1054.09,1181.08,1054.09z M805.91,869.49c3.69-29.92,24.59-52.52,48.64-52.52h39.68
		c-4.48,11.25-21.51,57.05-23.75,61.43h-65.66L805.91,869.49z M641.18,885.87h277.69l0.85,7.27l30.06,258.919H672.04L641.18,885.87z
		 M538.78,1139.77c0-49.84,40.52-90.409,90.35-90.409c8.27,0,16.28,1.149,23.9,3.29l11.05,95.229
		c-0.65,1.05-65.96,159.311-65.96,159.311v-79.96c0-1.54-0.95-2.931-2.39-3.48C561.13,1209.96,538.78,1177,538.78,1139.77z
		 M522.94,1508.96l9.76-23.6c0,0,109.87,23.85,110.02,23.85c1.15,0,2.19-0.8,2.44-1.95c0.3-1.34-0.55-2.68-1.89-2.979
		l-108.68-23.601l63.53-153.979l69.1-167.47c0.44,0.199,56.85,0.3,56.85,0.3c-1.55,1.39-3.04,2.84-4.48,4.38
		c-10.86,11.649-17.87,26.49-16.88,39.68l6.92,161.69l-60.04,168.77L522.94,1508.96z M640.13,1539.77l-3.53,18.521
		c-6.02,9.71-21.11,13.149-32.36,13.149c-6.47,0-17.22-0.5-21.71-6.079c-17.87-22.65-32.55-32.71-40.27-36.591l5.03-7.369
		L640.13,1539.77z M467.24,1541.42c29.42,0,62.87-5.98,69.05-7.12h0.1c0.1,0.05,0.24,0.101,0.39,0.15c0.1,0.05,0.2,0.1,0.3,0.149
		c2.69,1.141,9.21,4.53,18.37,12.54c-16.87,3.88-55.95,10.75-63.82,10.46c-9.16-0.3-18.22-3.84-24.79-9.66
		c-1.59-1.449-3.88-3.84-5.08-6.619C463.5,1541.42,465.35,1541.42,467.24,1541.42z M488.89,1640.38H310.77v-24.14h35.39
		c2.05,0,3.69-1.641,3.69-3.68v-0.101c0-2.04-1.64-3.69-3.69-3.69h-23.29l51.57-25.739c0.1,0.05,0.2,0.1,0.3,0.1
		c0.15,0.05,105.24,25.64,105.24,25.64h-98.12c-2.09,0-3.73,1.65-3.73,3.74c0,2.04,1.64,3.73,3.73,3.73h107.03V1640.38z
		 M496.36,1640.38v-27.62h-0.05c0.05-0.1,0.05-0.149,0.05-0.25v0.25l95.14,23.19c0.05,1.7,0.1,3.189,0.19,4.43H496.36z
		 M392.01,1567.25l200.98,48.99c-0.8,4.229-1.2,8.31-1.39,12.05c0,0-205.46-50.18-211.68-51.63c2.49-10.8,11.9-43.36,36.69-43.36
		c4.38,0,9.21,1.05,14.24,3.04c6.37,2.59,14.93,4.18,25.58,4.78c1,3.63,3.39,7.22,7.12,10.5c7.72,6.77,18.17,10.95,28.48,10.95
		c10.06,0,53.02-7.66,67.85-11.351c5.03,4.88,10.66,11.011,16.78,18.771c5.97,7.57,18.67,8.91,27.58,8.91
		c12.94,0,28.92-3.881,37.09-14.48c0.65,1.29,1.24,2.78,1.74,4.63c1.15,4.23,1.89,8.761,1.89,13.19c-0.05,0.449-6.67-0.2-7.27-0.301
		c-14.63-1.989-26.18,1.641-34.15,10.7c-4.63,5.38-7.61,11.9-9.41,18.721l-200.92-48.94c-1.34-0.29-2.69,0.5-2.99,1.85
		C389.87,1565.61,390.67,1566.95,392.01,1567.25z M861.22,1622.76h-33.55c0.44-4.279,1.79-8.56,3.98-12.64
		c1.49-2.79-2.89-5.23-4.43-2.34c-2.54,4.83-4.08,9.899-4.63,14.979c0,0-91.45,0.051-95.54,0c-2.78-0.05-2.98,5.03,0,4.98h133.82
		c-0.45,5.229-1.04,10.06-1.49,12.64c-5.78,0.05-253.9-0.09-260.22,0c-3.23-1.39,1.45-24.39,2.24-27.28
		c1.55-5.67,3.99-11.199,7.77-15.529c9.51-10.9,22.25-7.771,34.85-7.771c5.77,0,12.19-0.739,18.86-1.989
		c1.9,3.239,5.28,6.18,9.81,8.47c6.27,3.18,13.49,4.88,20.66,4.88c3.19,0,6.32-0.35,9.41-1c8.41-1.74,16.43-5.87,24.29-9.26
		c14.34-6.17,30.72-13.84,38.44-17.971c6.27,3.431,13.49,8.061,21.65,14.141c4.28,3.13,10.51,3.779,14.99,3.779
		c15.13,0,38.98-7.869,45.85-24.539c6.37,6.069,8.41,15.479,8.41,15.479c-8.66,3.88-16.38,9.41-22.25,16.13
		c-2.04,2.34,1.54,5.72,3.73,3.29c5.28-5.979,12.2-11.01,20.02-14.64C861.37,1599.01,861.77,1612.36,861.22,1622.76z
		 M1249.93,1230.87v409.51h-121.52v-230.84c0-2.04-1.65-3.73-3.74-3.73c-2.04,0-3.729,1.69-3.729,3.73v230.84H866.8
		c2.04-11.59,6.47-47.59-9.36-73.92c-2.54-4.14-5.38-7.17-8.62-9.06l-2.34-23.4l19.72-2.54c2.04-0.25,3.48-2.09,3.23-4.08
		l-18.07-161.2v-0.25l-1.34-25.89h270.92v42.12c0,2.09,1.689,3.729,3.729,3.729c2.09,0,3.74-1.64,3.74-3.729v-193.41
		c4.68,1.25,9.6,1.89,14.53,1.89c1.75,0,3.489-0.05,5.18-0.239c12.149-1.15,22.1-6.381,27.78-14.49
		c9.21-10.66,55.01-64.72,54.81-81.3l47.29-19.46c19.12,16.58,31.22,41.02,31.22,68.25c0,24.439-10.01,48.29-27.68,65.22
		c-6.47,6.17-14.09,11.939-22.25,15.63c-2.59,1.14-5.53,1.64-7.771,3.48C1250.57,1228.53,1249.93,1229.52,1249.93,1230.87z
		 M1257.39,1640.38V1234.6h129.99c1.04,14.99,4.98,29.771,11.65,43.261c-23.5-2.24-47.25,3.34-68.851,12.75
		c-21.66,9.409-41.42,22.55-60.689,36.189c-2.54,1.84-6.07,7.521-0.75,8.66c0.8,0.2,19.27,4.68,41.08,4.68
		c3.979,0,7.91-0.149,11.6-0.449c6.17-0.49,11.05-3.681,15.78-6.721c5.319-3.43,10.399-6.569,16.229-5.22
		c6.82,1.59,9.95,8.21,14.08,13.09c6.08,7.17,14.49,7.521,23.351,6.22c5.279-0.79,9.71-1.04,13.939,2.74
		c9.21,8.21,13.391,20.811,21.61,30.021c3.229,3.58,10.8,11.25,10.8,13.29v199.38c0,22.21,10.16,41.12,24.29,47.89H1257.39z
		 M1652.67,1592.49c0,23.8-12.74,43.17-28.42,43.17H1473.1c-15.68,0-28.42-19.37-28.42-43.17V1396.85h207.99V1592.49z
		 M1782.11,1141.56c-1.55,8.761-2.99,17.021-5.58,23.051c-7.47,17.27-17.67,34.899-30.37,52.37
		c-8.16,11.199-10.25,25.239-12.24,38.779c-1.3,8.41-2.59,17.08-5.33,24.79c-6.62,18.771-21.7,32.51-36.29,45.75
		c-18.42,17.08-38.729,36.44-40.87,63.08h-52.47c4.03-10.95,12.14-21.91,22.25-29.67c12.15-9.41,25.94-16.729,36.99-27.58
		c10.85-10.66,19.61-24.89,27.58-44.81c0.55-1.29-0.101-2.74-1.4-3.23c-1.24-0.55-2.69,0.101-3.229,1.34
		c-7.67,19.32-16.08,33.011-26.44,43.11c-10.899,10.71-24.54,17.88-36.54,27.19c-9.31,7.21-19.81,19.26-24.54,33.649h-25.74
		c1.3-5.53,1.74-11.1,1.3-16.53c2.83-7.869,8.311-15.279,16.221-21.659c5.529-4.48,12-7.46,18.77-10.601
		c7.17-3.28,14.59-6.67,21.01-12.1c15.19-12.69,21.061-32.7,26.73-52.021c4.68-16.13,9.561-32.76,19.77-44.56
		c8.761-10.25,20.61-16.08,33.15-22.25c10.561-5.23,21.51-10.601,30.62-18.92c7.47-6.82,11.351-16.42,15.09-25.73
		c2.98-7.37,5.771-14.34,10.2-19.92c2.189-2.74,4.53-6.07,6.97-9.56c6.771-9.601,14.94-21.101,22.9-24.84
		C1786.04,1119.16,1784.05,1130.51,1782.11,1141.56z"/>
</g>
</svg>
